<?xml version="1.0" encoding="iso-8859-1"?>
<!-- Generator: Adobe Illustrator 19.0.0, SVG Export Plug-In . SVG Version: 6.00 Build 0)  -->
<svg version="1.1" id="Layer_1" xmlns="http://www.w3.org/2000/svg" xmlns:xlink="http://www.w3.org/1999/xlink" x="0px" y="0px"
	 viewBox="0 0 302.4 302.4" style="enable-background:new 0 0 302.4 302.4;" xml:space="preserve">
<g>
	<g>
		<g>
			<path d="M151.2,25.2c-39.949,0-72.45,32.501-72.45,72.45c0,13.957,3.993,27.509,11.547,39.188
				c7.33,11.334,17.648,20.403,29.838,26.224c1.945,0.929,4.229,0.799,6.054-0.343c1.826-1.142,2.943-3.139,2.96-5.292
				c0.096-12.119,9.987-21.977,22.051-21.977c12.111,0,22.003,9.848,22.05,21.952c0.009,2.159,1.121,4.162,2.95,5.311
				c1.019,0.641,2.183,0.965,3.35,0.965c0.925,0,1.853-0.203,2.715-0.615c12.19-5.821,22.509-14.889,29.838-26.224
				c7.554-11.68,11.547-25.231,11.547-39.188C223.65,57.701,191.149,25.2,151.2,25.2z M201.523,129.996
				c-4.492,6.946-10.34,12.863-17.171,17.421c-4.333-14.197-17.574-24.567-33.152-24.567c-15.529,0-28.768,10.379-33.13,24.583
				c-6.84-4.561-12.696-10.483-17.193-17.437c-6.232-9.636-9.527-20.822-9.527-32.345c0-30.874,23.499-56.36,53.55-59.519V56.7h12.6
				V38.131c30.05,3.159,53.55,28.646,53.55,59.519C211.05,109.174,207.756,120.36,201.523,129.996z"/>
			<rect x="126" y="72.45" width="12.6" height="12.6"/>
			<rect x="144.9" y="72.45" width="12.6" height="12.6"/>
			<rect x="163.8" y="72.45" width="12.6" height="12.6"/>
			<rect x="113.4" y="94.5" width="63" height="12.6"/>
			<path d="M151.2,144.9c-6.948,0-12.6,5.652-12.6,12.6s5.652,12.6,12.6,12.6s12.6-5.652,12.6-12.6S158.148,144.9,151.2,144.9z"/>
			<path d="M255.15,66.15h-11.54c-6.194-18.143-17.81-34.369-33.09-46.078C193.384,6.941,172.871,0,151.2,0
				c-21.672,0-42.184,6.941-59.318,20.072C76.589,31.791,64.969,48.034,58.794,66.15H47.25c-6.948,0-12.6,5.652-12.6,12.6v37.8
				c0,6.948,5.652,12.6,12.6,12.6h11.554c5.149,15.133,13.969,28.828,25.73,39.834c11.759,11.005,26.001,18.891,41.467,23.021
				v31.646c0,3.479,2.82,6.3,6.3,6.3h3.15v72.45h12.6v-72.45h6.3v72.45h12.6v-72.45h3.15c3.479,0,6.3-2.821,6.3-6.3v-31.644
				c15.449-4.124,29.703-12.011,41.467-23.022c11.77-11.016,20.597-24.724,25.737-39.834h11.546c6.948,0,12.6-5.652,12.6-12.6v-37.8
				C267.75,71.802,262.098,66.15,255.15,66.15z M55.396,116.55H47.25v-37.8h8.147c-1.218,6.124-1.847,12.449-1.847,18.9
				C53.55,104.107,54.181,110.439,55.396,116.55z M163.8,217.35h-3.15h-18.9h-3.15v-6.3h15.75v-12.6H138.6v-3.966
				c4.218,0.542,8.434,0.816,12.6,0.816s8.38-0.273,12.6-0.816V217.35z M232.965,121.002c-4.212,14.797-12.409,28.208-23.708,38.782
				c-11.346,10.617-25.335,17.914-40.426,21.094c-5.883,1.209-11.815,1.822-17.632,1.822c-5.811,0-11.744-0.613-17.602-1.815
				c-15.122-3.187-29.111-10.483-40.455-21.1c-11.298-10.574-19.493-23.984-23.718-38.838c-2.173-7.377-3.275-15.214-3.275-23.297
				c0-8.082,1.102-15.92,3.291-23.353c4.962-17.443,15.654-33.149,30.104-44.224C114.462,18.642,132.323,12.6,151.2,12.6
				s36.738,6.042,51.655,17.472C217.307,41.148,228,56.854,232.978,74.344c2.171,7.408,3.272,15.249,3.272,23.306
				S235.149,113.548,232.965,121.002z M255.15,116.55h-8.148c1.218-6.137,1.848-12.462,1.848-18.9c0-6.443-0.631-12.773-1.847-18.9
				h8.147V116.55z"/>
		</g>
	</g>
</g>
<g>
</g>
<g>
</g>
<g>
</g>
<g>
</g>
<g>
</g>
<g>
</g>
<g>
</g>
<g>
</g>
<g>
</g>
<g>
</g>
<g>
</g>
<g>
</g>
<g>
</g>
<g>
</g>
<g>
</g>
</svg>
