<?xml version="1.0" encoding="iso-8859-1"?>
<!-- Generator: Adobe Illustrator 16.0.0, SVG Export Plug-In . SVG Version: 6.00 Build 0)  -->
<!DOCTYPE svg PUBLIC "-//W3C//DTD SVG 1.1//EN" "http://www.w3.org/Graphics/SVG/1.1/DTD/svg11.dtd">
<svg version="1.1" id="Capa_1" xmlns="http://www.w3.org/2000/svg" xmlns:xlink="http://www.w3.org/1999/xlink" x="0px" y="0px"
	 width="432.025px" height="432.025px" viewBox="0 0 432.025 432.025" style="enable-background:new 0 0 432.025 432.025;"
	 xml:space="preserve">
<g>
	<path d="M432.025,142.25V72.326H0v69.923h21.309v30.583H0v69.924h432.025v-69.924h-24.578V142.25H432.025z M77.561,214.117H47.335
		v-29.574h30.225V214.117z M77.561,171.931H47.335v-29.569h30.225V171.931z M77.561,130.534H47.335v-29.571h30.225V130.534z
		 M122.242,214.117H92.019v-29.574h30.224V214.117z M122.242,171.931H92.019v-29.569h30.224V171.931z M122.242,130.534H92.019
		v-29.571h30.224V130.534z M166.267,214.117h-30.225v-29.574h30.225V214.117z M166.267,171.931h-30.225v-29.569h30.225V171.931z
		 M166.267,130.534h-30.225v-29.571h30.225V130.534z M209.833,214.117h-30.226v-29.574h30.226V214.117z M209.833,171.931h-30.226
		v-29.569h30.226V171.931z M209.833,130.534h-30.226v-29.571h30.226V130.534z M254.508,214.117h-30.222v-29.574h30.222V214.117z
		 M254.508,171.931h-30.222v-29.569h30.222V171.931z M254.508,130.534h-30.222v-29.571h30.222V130.534z M298.541,214.117H268.32
		v-29.574h30.221V214.117z M298.541,171.931H268.32v-29.569h30.221V171.931z M298.541,130.534H268.32v-29.571h30.221V130.534z
		 M366.154,213.262h-39.021v-18.027h39.021V213.262z M346.493,162.652c-17.198,0-31.14-13.94-31.14-31.139
		c0-17.185,13.938-31.13,31.14-31.13c17.2,0,31.138,13.94,31.138,31.13C377.63,148.704,363.693,162.652,346.493,162.652z
		 M366.154,131.322c0,10.778-8.731,19.514-19.503,19.514c-10.769,0-19.513-8.741-19.513-19.514c0-10.768,8.744-19.497,19.513-19.497
		C357.422,111.825,366.154,120.547,366.154,131.322z M282.356,331.271h50.497v11.974h-50.497v16.454H117.927v-16.454H72.551v-11.974
		h45.376V317.81h61.278v-40.323h41.891v40.323h61.26V331.271z"/>
</g>
<g>
</g>
<g>
</g>
<g>
</g>
<g>
</g>
<g>
</g>
<g>
</g>
<g>
</g>
<g>
</g>
<g>
</g>
<g>
</g>
<g>
</g>
<g>
</g>
<g>
</g>
<g>
</g>
<g>
</g>
</svg>
